<svg width="1920" height="1629" viewBox="0 0 1920 1629" fill="none" xmlns="http://www.w3.org/2000/svg">
<g opacity="0.03">
<path d="M1192.59 430.383C1170.14 443.342 1146.1 452.945 1121.13 458.924C1096.95 464.716 1072.05 467.079 1047.13 465.95L1296.11 322.202C1284.63 344.347 1270.14 364.725 1253.03 382.771C1235.37 401.406 1215.03 417.425 1192.59 430.383ZM1317.39 266.964L988.657 456.757C969.921 451.645 951.724 444.488 934.57 435.483L1326.01 209.486C1325.23 228.845 1322.33 248.183 1317.39 266.964ZM1324.38 167.47L898.995 413.067C892.654 408.333 886.454 403.255 880.567 397.974C874.622 392.642 868.848 386.969 863.406 381.115L1314.51 120.672C1316.86 128.315 1318.88 136.151 1320.53 143.964C1322.16 151.702 1323.45 159.611 1324.38 167.47ZM1300.92 85.5592L839.788 351.796C835.483 345.605 831.381 339.142 827.595 332.585C823.809 326.026 820.262 319.242 817.055 312.42L1278.19 46.1831C1282.5 52.3737 1286.6 58.8371 1290.38 65.3941C1294.17 71.9531 1297.72 78.7379 1300.92 85.5592ZM1254.57 16.8642L803.473 277.307C801.123 269.665 799.098 261.829 797.452 254.015C795.822 246.276 794.525 238.367 793.595 230.509L1218.98 -15.0888C1225.32 -10.3539 1231.52 -5.27582 1237.41 0.00431237C1243.36 5.33761 1249.13 11.0105 1254.57 16.8642ZM1183.41 -37.5039L791.97 188.492C792.749 169.133 795.649 149.796 800.589 131.016L1129.32 -58.7783C1148.06 -53.6663 1166.26 -46.5088 1183.41 -37.5045L1183.41 -37.5049C1183.41 -37.5045 1183.41 -37.5045 1183.41 -37.5045L1183.41 -37.5039ZM1070.84 -67.9709L821.866 75.7766C833.348 53.6315 847.843 33.2536 864.948 15.208C882.612 -3.42689 902.949 -19.4461 925.394 -32.4048C947.839 -45.3633 971.88 -54.9659 996.851 -60.9458C1021.03 -66.7367 1045.93 -69.0999 1070.84 -67.9709Z" fill="black"/>
</g>
<circle cx="1390.5" cy="949.5" r="679.5" fill="#DFF1FF"/>
<g opacity="0.22">
<circle cx="515.265" cy="671.471" r="35.312" transform="rotate(52.8519 515.265 671.471)" fill="#CBCBCB"/>
<circle cx="400.333" cy="758.544" r="35.312" transform="rotate(52.8519 400.333 758.544)" fill="#CBCBCB"/>
<circle cx="285.402" cy="845.617" r="35.312" transform="rotate(52.8519 285.402 845.617)" fill="#CBCBCB"/>
<circle cx="170.471" cy="932.691" r="35.312" transform="rotate(52.8519 170.471 932.691)" fill="#CBCBCB"/>
<circle cx="602.338" cy="786.402" r="35.312" transform="rotate(52.8519 602.338 786.402)" fill="#CBCBCB"/>
<circle cx="487.407" cy="873.475" r="35.312" transform="rotate(52.8519 487.407 873.475)" fill="#CBCBCB"/>
<circle cx="372.476" cy="960.549" r="35.312" transform="rotate(52.8519 372.476 960.549)" fill="#CBCBCB"/>
<circle cx="257.545" cy="1047.62" r="35.312" transform="rotate(52.8519 257.545 1047.62)" fill="#CBCBCB"/>
<circle cx="689.411" cy="901.333" r="35.312" transform="rotate(52.8519 689.411 901.333)" fill="#CBCBCB"/>
<circle cx="776.485" cy="1016.26" r="35.312" transform="rotate(52.8519 776.485 1016.26)" fill="#CBCBCB"/>
<circle cx="574.48" cy="988.407" r="35.312" transform="rotate(52.8519 574.48 988.407)" fill="#CBCBCB"/>
<circle cx="661.554" cy="1103.34" r="35.312" transform="rotate(52.8519 661.554 1103.34)" fill="#CBCBCB"/>
<circle cx="459.549" cy="1075.48" r="35.312" transform="rotate(52.8519 459.549 1075.48)" fill="#CBCBCB"/>
<circle cx="344.618" cy="1162.55" r="35.312" transform="rotate(52.8519 344.618 1162.55)" fill="#CBCBCB"/>
<circle cx="546.622" cy="1190.41" r="35.312" transform="rotate(52.8519 546.622 1190.41)" fill="#CBCBCB"/>
<circle cx="431.691" cy="1277.48" r="35.312" transform="rotate(52.8519 431.691 1277.48)" fill="#CBCBCB"/>
</g>
<ellipse cx="71.5" cy="381.5" rx="596.5" ry="592.5" fill="#EFEFF0"/>
</svg>
